<svg xmlns="http://www.w3.org/2000/svg" fill="currentColor" height="16" viewBox="0 0 16 16" width="16" focusable="false" aria-hidden="true" style="pointer-events: none; display: inherit; width: 100%; height: 100%;"><path clip-rule="evenodd" d="M13.053 5.906a2.1 2.1 0 01.002 4.188 2.1 2.1 0 01-2.963 2.961 2.1 2.1 0 01-4.189.003 2.1 2.1 0 01-2.96-2.964 2.1 2.1 0 01-.002-4.188 2.1 2.1 0 012.962-2.961 2.1 2.1 0 014.189-.001 2.1 2.1 0 012.961 2.962ZM7.999 4v4.668a1.75 1.75 0 101 1.582V6h2V4h-3Z" fill-rule="evenodd"/></svg>